<svg xmlns="http://www.w3.org/2000/svg" viewBox="-140.0 -132.0 256.0 209.0" role="img" aria-label="PK_3C_enteral diagram"><title>PK_3C_enteral</title><polyline points="0.00,26.00 -2.00,26.00 -2.00,-0.00" fill="none" stroke="rgb(152,112,187)" stroke-width="0.8" stroke-linecap="round"/><polyline points="20.00,26.00 37.00,26.00 37.00,27.00" fill="none" stroke="rgb(152,112,187)" stroke-width="0.8" stroke-linecap="round"/><polyline points="38.00,26.00 76.00,26.00 76.00,32.00" fill="none" stroke="rgb(152,112,187)" stroke-width="0.8" stroke-linecap="round"/><polyline points="-2.00,-0.00 -18.00,-0.00" fill="none" stroke="rgb(152,112,187)" stroke-width="0.8" stroke-linecap="round"/><polyline points="18.00,-0.00 36.00,-0.00" fill="none" stroke="rgb(152,112,187)" stroke-width="0.8" stroke-linecap="round"/><polyline points="36.00,-0.00 36.00,-24.00" fill="none" stroke="rgb(152,112,187)" stroke-width="0.8" stroke-linecap="round"/><polyline points="-18.00,-0.00 -44.00,-0.00" fill="none" stroke="rgb(152,112,187)" stroke-width="0.8" stroke-linecap="round"/><polyline points="-18.00,-12.00 -18.00,-0.00" fill="none" stroke="rgb(152,112,187)" stroke-width="0.8" stroke-linecap="round"/><polyline points="-18.00,-0.00 -100.00,-0.00" fill="none" stroke="rgb(152,112,187)" stroke-width="0.8" stroke-linecap="round"/><g data-component="central"><polygon points="-20.00,0.60 -20.00,2.00 -28.20,18.00 -27.20,19.00 -26.00,19.80 -10.00,19.80 -8.80,19.20 -7.80,17.80 -16.20,2.40 -15.80,0.40 -16.80,0.60 -16.20,2.00 -19.40,2.00 -19.20,0.80 -19.40,0.40 -20.00,0.60" fill="none" stroke="rgb(115,115,255)" stroke-width="8.00"/><polygon points="-21.60,5.60 -27.40,17.80 -27.40,18.60 -26.60,19.20 -9.80,19.40 -8.80,18.80 -8.40,18.20 -14.60,5.80 -21.60,5.60" fill="rgb(193,193,255)" stroke="rgb(193,193,255)" stroke-width="1.75"/><rect x="-24.40" y="5.60" width="20.00" height="20.00" rx="0.00" fill="rgb(255,255,255)" stroke="rgb(255,255,255)" stroke-width="0.25"/><rect x="-24.40" y="5.60" width="20.00" height="20.00" rx="0.00" fill="rgb(255,255,255)" stroke="rgb(255,255,255)" stroke-width="0.25"/><polyline points="-17.95,1.80 -17.95,5.00" fill="none" stroke="rgb(153,193,241)" stroke-width="2.00"/><text x="-18.00" y="6.00" font-size="3.40" fill="rgb(0,0,0)" text-anchor="middle" dominant-baseline="middle" font-family="Inter, Helvetica, Arial, sans-serif">central</text><text x="-18.10" y="11.10" font-size="3.00" fill="rgb(0,0,0)" text-anchor="middle" dominant-baseline="middle" font-family="Inter, Helvetica, Arial, sans-serif">80.6 L</text></g><g data-component="elim"><polygon points="-48.00,-0.00 -40.00,-0.00 -34.00,6.00 -34.00,11.20 -36.00,11.20 -51.60,11.20 -54.00,11.20 -54.00,6.00 -54.00,6.00 -48.00,-0.00" fill="rgb(255,255,255)" stroke="rgb(0,0,0)" stroke-width="0.25"/><text x="-44.40" y="3.70" font-size="3.57" fill="rgb(0,0,0)" text-anchor="middle" dominant-baseline="middle" font-family="Inter, Helvetica, Arial, sans-serif">elim</text><rect x="-54.00" y="-2.10" width="20.00" height="20.00" rx="0.00" fill="rgb(193,193,255)" stroke="rgb(193,193,255)" stroke-width="0.25"/><rect x="-54.00" y="0.30" width="20.00" height="20.00" rx="0.00" fill="rgb(51,209,122)" stroke="rgb(46,194,126)" stroke-width="2.00"/><polyline points="-47.89,9.67 -47.89,12.87" fill="none" stroke="rgb(153,193,241)" stroke-width="4.00"/><ellipse cx="-47.90" cy="9.30" rx="0.70" ry="0.50" fill="rgb(170,170,255)" stroke="rgb(170,170,255)" stroke-width="0.25"/><text x="-43.70" y="15.00" font-size="3.06" fill="rgb(0,0,0)" text-anchor="middle" dominant-baseline="middle" font-family="Inter, Helvetica, Arial, sans-serif">10.4 L/h</text></g><g data-component="C_central"><polygon points="-102.00,-102.00 -82.00,-92.00 -102.00,-82.00 -102.00,-102.00" fill="rgb(255,255,255)" stroke="rgb(28,113,216)" stroke-width="1.00"/></g><g data-component="centralCPort"><polygon points="-110.00,-0.00 -100.00,-10.00 -90.00,-0.00 -100.00,10.00 -110.00,-0.00" fill="rgb(152,112,187)" stroke="rgb(152,112,187)" stroke-width="8.00"/></g><g data-component="transfer"><rect x="-2.00" y="-9.80" width="20.00" height="20.00" rx="0.00" fill="rgb(152,112,187)" stroke="rgb(152,112,187)" stroke-width="0.25"/><rect x="-2.00" y="-10.00" width="20.00" height="20.00" rx="0.00" fill="rgb(51,209,122)" stroke="rgb(46,194,126)" stroke-width="2.00"/><text x="7.40" y="-9.10" font-size="3.23" fill="rgb(0,0,0)" text-anchor="middle" dominant-baseline="middle" font-family="Inter, Helvetica, Arial, sans-serif">transfer</text><rect x="-2.00" y="-6.70" width="20.00" height="20.00" rx="0.00" fill="rgb(51,209,122)" stroke="rgb(46,194,126)" stroke-width="2.00"/><rect x="-2.00" y="-13.20" width="20.00" height="20.00" rx="0.00" fill="rgb(51,209,122)" stroke="rgb(46,194,126)" stroke-width="2.00"/><text x="8.20" y="0.10" font-size="3.23" fill="rgb(0,0,0)" text-anchor="middle" dominant-baseline="middle" font-family="Inter, Helvetica, Arial, sans-serif">1</text><text x="7.90" y="5.10" font-size="3.00" fill="rgb(0,0,0)" text-anchor="middle" dominant-baseline="middle" font-family="Inter, Helvetica, Arial, sans-serif">10.4 L/h</text><text x="7.90" y="-5.10" font-size="3.00" fill="rgb(0,0,0)" text-anchor="middle" dominant-baseline="middle" font-family="Inter, Helvetica, Arial, sans-serif">10.4 L/h</text><polyline points="8.60,-4.37 8.60,1.43" fill="none" stroke="rgb(0,0,0)" stroke-width="6.00"/><polyline points="7.20,0.03 7.20,5.83" fill="none" stroke="rgb(0,0,0)" stroke-width="6.00"/></g><g data-component="peripheral"><polygon points="34.00,0.60 34.00,2.00 25.80,18.00 26.80,19.00 28.00,19.80 44.00,19.80 45.20,19.20 46.20,17.80 37.80,2.40 38.20,0.40 37.20,0.60 37.80,2.00 34.60,2.00 34.80,0.80 34.60,0.40 34.00,0.60" fill="none" stroke="rgb(115,115,255)" stroke-width="8.00"/><polygon points="32.40,5.60 26.60,17.80 26.60,18.60 27.40,19.20 44.20,19.40 45.20,18.80 45.60,18.20 39.40,5.80 32.40,5.60" fill="rgb(193,193,255)" stroke="rgb(193,193,255)" stroke-width="1.75"/><rect x="29.60" y="5.60" width="20.00" height="20.00" rx="0.00" fill="rgb(255,255,255)" stroke="rgb(255,255,255)" stroke-width="0.25"/><rect x="29.60" y="5.60" width="20.00" height="20.00" rx="0.00" fill="rgb(255,255,255)" stroke="rgb(255,255,255)" stroke-width="0.25"/><polyline points="36.05,1.80 36.05,5.00" fill="none" stroke="rgb(153,193,241)" stroke-width="2.00"/><text x="36.00" y="6.00" font-size="3.40" fill="rgb(0,0,0)" text-anchor="middle" dominant-baseline="middle" font-family="Inter, Helvetica, Arial, sans-serif">peripheral</text><text x="35.90" y="11.10" font-size="3.00" fill="rgb(0,0,0)" text-anchor="middle" dominant-baseline="middle" font-family="Inter, Helvetica, Arial, sans-serif">80.6 L</text></g><g data-component="peripheralCPort"><polygon points="26.00,-24.00 36.00,-34.00 46.00,-24.00 36.00,-14.00 26.00,-24.00" fill="rgb(152,112,187)" stroke="rgb(152,112,187)" stroke-width="8.00"/></g><g data-component="C_peripheral1"><polygon points="-102.00,-86.00 -82.00,-76.00 -102.00,-66.00 -102.00,-86.00" fill="rgb(255,255,255)" stroke="rgb(28,113,216)" stroke-width="1.00"/></g><g data-component="peripheral2"><polygon points="35.00,27.60 35.00,29.00 26.80,45.00 27.80,46.00 29.00,46.80 45.00,46.80 46.20,46.20 47.20,44.80 38.80,29.40 39.20,27.40 38.20,27.60 38.80,29.00 35.60,29.00 35.80,27.80 35.60,27.40 35.00,27.60" fill="none" stroke="rgb(115,115,255)" stroke-width="8.00"/><polygon points="33.40,32.60 27.60,44.80 27.60,45.60 28.40,46.20 45.20,46.40 46.20,45.80 46.60,45.20 40.40,32.80 33.40,32.60" fill="rgb(193,193,255)" stroke="rgb(193,193,255)" stroke-width="1.75"/><rect x="30.60" y="32.60" width="20.00" height="20.00" rx="0.00" fill="rgb(255,255,255)" stroke="rgb(255,255,255)" stroke-width="0.25"/><rect x="30.60" y="32.60" width="20.00" height="20.00" rx="0.00" fill="rgb(255,255,255)" stroke="rgb(255,255,255)" stroke-width="0.25"/><polyline points="37.05,28.80 37.05,32.00" fill="none" stroke="rgb(153,193,241)" stroke-width="2.00"/><text x="37.00" y="33.00" font-size="3.40" fill="rgb(0,0,0)" text-anchor="middle" dominant-baseline="middle" font-family="Inter, Helvetica, Arial, sans-serif">peripheral2</text><text x="36.90" y="38.10" font-size="3.00" fill="rgb(0,0,0)" text-anchor="middle" dominant-baseline="middle" font-family="Inter, Helvetica, Arial, sans-serif">80.6 L</text></g><g data-component="transfer1"><rect x="-1.00" y="17.20" width="20.00" height="20.00" rx="0.00" fill="rgb(152,112,187)" stroke="rgb(152,112,187)" stroke-width="0.25"/><rect x="-1.00" y="17.00" width="20.00" height="20.00" rx="0.00" fill="rgb(51,209,122)" stroke="rgb(46,194,126)" stroke-width="2.00"/><text x="8.40" y="17.90" font-size="3.23" fill="rgb(0,0,0)" text-anchor="middle" dominant-baseline="middle" font-family="Inter, Helvetica, Arial, sans-serif">transfer1</text><rect x="-1.00" y="20.30" width="20.00" height="20.00" rx="0.00" fill="rgb(51,209,122)" stroke="rgb(46,194,126)" stroke-width="2.00"/><rect x="-1.00" y="13.80" width="20.00" height="20.00" rx="0.00" fill="rgb(51,209,122)" stroke="rgb(46,194,126)" stroke-width="2.00"/><text x="9.20" y="27.10" font-size="3.23" fill="rgb(0,0,0)" text-anchor="middle" dominant-baseline="middle" font-family="Inter, Helvetica, Arial, sans-serif">1</text><text x="8.90" y="32.10" font-size="3.00" fill="rgb(0,0,0)" text-anchor="middle" dominant-baseline="middle" font-family="Inter, Helvetica, Arial, sans-serif">10.4 L/h</text><text x="8.90" y="21.90" font-size="3.00" fill="rgb(0,0,0)" text-anchor="middle" dominant-baseline="middle" font-family="Inter, Helvetica, Arial, sans-serif">10.4 L/h</text><polyline points="9.60,22.63 9.60,28.43" fill="none" stroke="rgb(0,0,0)" stroke-width="6.00"/><polyline points="8.20,27.03 8.20,32.83" fill="none" stroke="rgb(0,0,0)" stroke-width="6.00"/></g><g data-component="peripheral2Cport"><polygon points="66.00,32.00 76.00,22.00 86.00,32.00 76.00,42.00 66.00,32.00" fill="rgb(152,112,187)" stroke="rgb(152,112,187)" stroke-width="8.00"/></g><g data-component="C_peripheral2"><polygon points="-102.00,-70.00 -82.00,-60.00 -102.00,-50.00 -102.00,-70.00" fill="rgb(255,255,255)" stroke="rgb(28,113,216)" stroke-width="1.00"/></g></svg>
