<svg xmlns="http://www.w3.org/2000/svg" viewBox="-140.0 -128.0 280.0 208.0" role="img" aria-label="PK_3M_3C diagram"><title>PK_3M_3C</title><polyline points="-68.00,-48.00 -68.00,-42.00 -20.00,-42.00 -20.00,-20.00" fill="none" stroke="rgb(152,112,187)" stroke-width="0.8" stroke-linecap="round"/><polyline points="-20.00,-20.00 -6.00,-20.00" fill="none" stroke="rgb(152,112,187)" stroke-width="0.8" stroke-linecap="round"/><polyline points="-6.00,-20.00 -6.00,26.00" fill="none" stroke="rgb(152,112,187)" stroke-width="0.8" stroke-linecap="round"/><polyline points="-6.00,-20.00 -5.00,-20.00 -5.00,-74.00 -4.00,-74.00" fill="none" stroke="rgb(152,112,187)" stroke-width="0.8" stroke-linecap="round"/><polyline points="14.00,26.00 14.00,27.00 30.00,27.00 30.00,28.00" fill="none" stroke="rgb(152,112,187)" stroke-width="0.8" stroke-linecap="round"/><polyline points="16.00,-74.00 16.00,-73.00 38.00,-73.00 38.00,-74.00" fill="none" stroke="rgb(152,112,187)" stroke-width="0.8" stroke-linecap="round"/><polyline points="30.00,12.00 30.00,28.00" fill="none" stroke="rgb(152,112,187)" stroke-width="0.8" stroke-linecap="round"/><polyline points="38.00,-88.00 38.00,-74.00" fill="none" stroke="rgb(152,112,187)" stroke-width="0.8" stroke-linecap="round"/><polyline points="38.00,-74.00 52.00,-74.00" fill="none" stroke="rgb(152,112,187)" stroke-width="0.8" stroke-linecap="round"/><polyline points="72.00,-74.00 78.00,-74.00" fill="none" stroke="rgb(152,112,187)" stroke-width="0.8" stroke-linecap="round"/><polyline points="36.00,-20.00 46.00,-20.00" fill="none" stroke="rgb(152,112,187)" stroke-width="0.8" stroke-linecap="round"/><polyline points="66.00,-20.00 76.00,-20.00" fill="none" stroke="rgb(152,112,187)" stroke-width="0.8" stroke-linecap="round"/><polyline points="14.00,-20.00 36.00,-20.00" fill="none" stroke="rgb(152,112,187)" stroke-width="0.8" stroke-linecap="round"/><polyline points="-48.00,-20.00 -20.00,-20.00" fill="none" stroke="rgb(152,112,187)" stroke-width="0.8" stroke-linecap="round"/><polyline points="30.00,28.00 44.00,28.00" fill="none" stroke="rgb(152,112,187)" stroke-width="0.8" stroke-linecap="round"/><polyline points="64.00,28.00 76.00,28.00" fill="none" stroke="rgb(152,112,187)" stroke-width="0.8" stroke-linecap="round"/><polyline points="30.00,28.00 14.00,28.00 14.00,40.00 -100.00,40.00 -100.00,-0.00" fill="none" stroke="rgb(152,112,187)" stroke-width="0.8" stroke-linecap="round"/><g data-component="hepatic"><polygon points="-22.00,-19.40 -22.00,-18.00 -30.20,-2.00 -29.20,-1.00 -28.00,-0.20 -12.00,-0.20 -10.80,-0.80 -9.80,-2.20 -18.20,-17.60 -17.80,-19.60 -18.80,-19.40 -18.20,-18.00 -21.40,-18.00 -21.20,-19.20 -21.40,-19.60 -22.00,-19.40" fill="none" stroke="rgb(115,115,255)" stroke-width="8.00"/><polygon points="-23.60,-14.40 -29.40,-2.20 -29.40,-1.40 -28.60,-0.80 -11.80,-0.60 -10.80,-1.20 -10.40,-1.80 -16.60,-14.20 -23.60,-14.40" fill="rgb(193,193,255)" stroke="rgb(193,193,255)" stroke-width="1.75"/><rect x="-26.40" y="-14.40" width="20.00" height="20.00" rx="0.00" fill="rgb(255,255,255)" stroke="rgb(255,255,255)" stroke-width="0.25"/><rect x="-26.40" y="-14.40" width="20.00" height="20.00" rx="0.00" fill="rgb(255,255,255)" stroke="rgb(255,255,255)" stroke-width="0.25"/><polyline points="-19.95,-18.20 -19.95,-15.00" fill="none" stroke="rgb(153,193,241)" stroke-width="2.00"/><text x="-20.00" y="-14.00" font-size="3.40" fill="rgb(0,0,0)" text-anchor="middle" dominant-baseline="middle" font-family="Inter, Helvetica, Arial, sans-serif">hepatic</text><text x="-20.10" y="-8.90" font-size="3.00" fill="rgb(0,0,0)" text-anchor="middle" dominant-baseline="middle" font-family="Inter, Helvetica, Arial, sans-serif">1.46e+03 L</text></g><g data-component="central"><polygon points="34.00,-19.40 34.00,-18.00 25.80,-2.00 26.80,-1.00 28.00,-0.20 44.00,-0.20 45.20,-0.80 46.20,-2.20 37.80,-17.60 38.20,-19.60 37.20,-19.40 37.80,-18.00 34.60,-18.00 34.80,-19.20 34.60,-19.60 34.00,-19.40" fill="none" stroke="rgb(115,115,255)" stroke-width="8.00"/><polygon points="32.40,-14.40 26.60,-2.20 26.60,-1.40 27.40,-0.80 44.20,-0.60 45.20,-1.20 45.60,-1.80 39.40,-14.20 32.40,-14.40" fill="rgb(193,193,255)" stroke="rgb(193,193,255)" stroke-width="1.75"/><rect x="29.60" y="-14.40" width="20.00" height="20.00" rx="0.00" fill="rgb(255,255,255)" stroke="rgb(255,255,255)" stroke-width="0.25"/><rect x="29.60" y="-14.40" width="20.00" height="20.00" rx="0.00" fill="rgb(255,255,255)" stroke="rgb(255,255,255)" stroke-width="0.25"/><polyline points="36.05,-18.20 36.05,-15.00" fill="none" stroke="rgb(153,193,241)" stroke-width="2.00"/><text x="36.00" y="-14.00" font-size="3.40" fill="rgb(0,0,0)" text-anchor="middle" dominant-baseline="middle" font-family="Inter, Helvetica, Arial, sans-serif">central</text><text x="35.90" y="-8.90" font-size="3.00" fill="rgb(0,0,0)" text-anchor="middle" dominant-baseline="middle" font-family="Inter, Helvetica, Arial, sans-serif">1.46e+03 L</text></g><g data-component="peripheral"><polygon points="74.00,-19.40 74.00,-18.00 65.80,-2.00 66.80,-1.00 68.00,-0.20 84.00,-0.20 85.20,-0.80 86.20,-2.20 77.80,-17.60 78.20,-19.60 77.20,-19.40 77.80,-18.00 74.60,-18.00 74.80,-19.20 74.60,-19.60 74.00,-19.40" fill="none" stroke="rgb(115,115,255)" stroke-width="8.00"/><polygon points="72.40,-14.40 66.60,-2.20 66.60,-1.40 67.40,-0.80 84.20,-0.60 85.20,-1.20 85.60,-1.80 79.40,-14.20 72.40,-14.40" fill="rgb(193,193,255)" stroke="rgb(193,193,255)" stroke-width="1.75"/><rect x="69.60" y="-14.40" width="20.00" height="20.00" rx="0.00" fill="rgb(255,255,255)" stroke="rgb(255,255,255)" stroke-width="0.25"/><rect x="69.60" y="-14.40" width="20.00" height="20.00" rx="0.00" fill="rgb(255,255,255)" stroke="rgb(255,255,255)" stroke-width="0.25"/><polyline points="76.05,-18.20 76.05,-15.00" fill="none" stroke="rgb(153,193,241)" stroke-width="2.00"/><text x="76.00" y="-14.00" font-size="3.40" fill="rgb(0,0,0)" text-anchor="middle" dominant-baseline="middle" font-family="Inter, Helvetica, Arial, sans-serif">peripheral</text><text x="75.90" y="-8.90" font-size="3.00" fill="rgb(0,0,0)" text-anchor="middle" dominant-baseline="middle" font-family="Inter, Helvetica, Arial, sans-serif">2.82e+03 L</text></g><g data-component="central_M1"><polygon points="28.00,28.60 28.00,30.00 19.80,46.00 20.80,47.00 22.00,47.80 38.00,47.80 39.20,47.20 40.20,45.80 31.80,30.40 32.20,28.40 31.20,28.60 31.80,30.00 28.60,30.00 28.80,28.80 28.60,28.40 28.00,28.60" fill="none" stroke="rgb(115,115,255)" stroke-width="8.00"/><polygon points="26.40,33.60 20.60,45.80 20.60,46.60 21.40,47.20 38.20,47.40 39.20,46.80 39.60,46.20 33.40,33.80 26.40,33.60" fill="rgb(193,193,255)" stroke="rgb(193,193,255)" stroke-width="1.75"/><rect x="23.60" y="33.60" width="20.00" height="20.00" rx="0.00" fill="rgb(255,255,255)" stroke="rgb(255,255,255)" stroke-width="0.25"/><rect x="23.60" y="33.60" width="20.00" height="20.00" rx="0.00" fill="rgb(255,255,255)" stroke="rgb(255,255,255)" stroke-width="0.25"/><polyline points="30.05,29.80 30.05,33.00" fill="none" stroke="rgb(153,193,241)" stroke-width="2.00"/><text x="30.00" y="34.00" font-size="3.40" fill="rgb(0,0,0)" text-anchor="middle" dominant-baseline="middle" font-family="Inter, Helvetica, Arial, sans-serif">central_M1</text><text x="29.90" y="39.10" font-size="3.00" fill="rgb(0,0,0)" text-anchor="middle" dominant-baseline="middle" font-family="Inter, Helvetica, Arial, sans-serif">51.5 L</text></g><g data-component="peripheral_M1"><polygon points="74.00,28.60 74.00,30.00 65.80,46.00 66.80,47.00 68.00,47.80 84.00,47.80 85.20,47.20 86.20,45.80 77.80,30.40 78.20,28.40 77.20,28.60 77.80,30.00 74.60,30.00 74.80,28.80 74.60,28.40 74.00,28.60" fill="none" stroke="rgb(115,115,255)" stroke-width="8.00"/><polygon points="72.40,33.60 66.60,45.80 66.60,46.60 67.40,47.20 84.20,47.40 85.20,46.80 85.60,46.20 79.40,33.80 72.40,33.60" fill="rgb(193,193,255)" stroke="rgb(193,193,255)" stroke-width="1.75"/><rect x="69.60" y="33.60" width="20.00" height="20.00" rx="0.00" fill="rgb(255,255,255)" stroke="rgb(255,255,255)" stroke-width="0.25"/><rect x="69.60" y="33.60" width="20.00" height="20.00" rx="0.00" fill="rgb(255,255,255)" stroke="rgb(255,255,255)" stroke-width="0.25"/><polyline points="76.05,29.80 76.05,33.00" fill="none" stroke="rgb(153,193,241)" stroke-width="2.00"/><text x="76.00" y="34.00" font-size="3.40" fill="rgb(0,0,0)" text-anchor="middle" dominant-baseline="middle" font-family="Inter, Helvetica, Arial, sans-serif">peripheral_M1</text><text x="75.90" y="39.10" font-size="3.00" fill="rgb(0,0,0)" text-anchor="middle" dominant-baseline="middle" font-family="Inter, Helvetica, Arial, sans-serif"></text></g><g data-component="central_M2"><polygon points="36.00,-73.40 36.00,-72.00 27.80,-56.00 28.80,-55.00 30.00,-54.20 46.00,-54.20 47.20,-54.80 48.20,-56.20 39.80,-71.60 40.20,-73.60 39.20,-73.40 39.80,-72.00 36.60,-72.00 36.80,-73.20 36.60,-73.60 36.00,-73.40" fill="none" stroke="rgb(115,115,255)" stroke-width="8.00"/><polygon points="34.40,-68.40 28.60,-56.20 28.60,-55.40 29.40,-54.80 46.20,-54.60 47.20,-55.20 47.60,-55.80 41.40,-68.20 34.40,-68.40" fill="rgb(193,193,255)" stroke="rgb(193,193,255)" stroke-width="1.75"/><rect x="31.60" y="-68.40" width="20.00" height="20.00" rx="0.00" fill="rgb(255,255,255)" stroke="rgb(255,255,255)" stroke-width="0.25"/><rect x="31.60" y="-68.40" width="20.00" height="20.00" rx="0.00" fill="rgb(255,255,255)" stroke="rgb(255,255,255)" stroke-width="0.25"/><polyline points="38.05,-72.20 38.05,-69.00" fill="none" stroke="rgb(153,193,241)" stroke-width="2.00"/><text x="38.00" y="-68.00" font-size="3.40" fill="rgb(0,0,0)" text-anchor="middle" dominant-baseline="middle" font-family="Inter, Helvetica, Arial, sans-serif">central_M2</text><text x="37.90" y="-62.90" font-size="3.00" fill="rgb(0,0,0)" text-anchor="middle" dominant-baseline="middle" font-family="Inter, Helvetica, Arial, sans-serif">17.3 L</text></g><g data-component="peripheral_M2"><polygon points="76.00,-73.40 76.00,-72.00 67.80,-56.00 68.80,-55.00 70.00,-54.20 86.00,-54.20 87.20,-54.80 88.20,-56.20 79.80,-71.60 80.20,-73.60 79.20,-73.40 79.80,-72.00 76.60,-72.00 76.80,-73.20 76.60,-73.60 76.00,-73.40" fill="none" stroke="rgb(115,115,255)" stroke-width="8.00"/><polygon points="74.40,-68.40 68.60,-56.20 68.60,-55.40 69.40,-54.80 86.20,-54.60 87.20,-55.20 87.60,-55.80 81.40,-68.20 74.40,-68.40" fill="rgb(193,193,255)" stroke="rgb(193,193,255)" stroke-width="1.75"/><rect x="71.60" y="-68.40" width="20.00" height="20.00" rx="0.00" fill="rgb(255,255,255)" stroke="rgb(255,255,255)" stroke-width="0.25"/><rect x="71.60" y="-68.40" width="20.00" height="20.00" rx="0.00" fill="rgb(255,255,255)" stroke="rgb(255,255,255)" stroke-width="0.25"/><polyline points="78.05,-72.20 78.05,-69.00" fill="none" stroke="rgb(153,193,241)" stroke-width="2.00"/><text x="78.00" y="-68.00" font-size="3.40" fill="rgb(0,0,0)" text-anchor="middle" dominant-baseline="middle" font-family="Inter, Helvetica, Arial, sans-serif">peripheral_M2</text><text x="77.90" y="-62.90" font-size="3.00" fill="rgb(0,0,0)" text-anchor="middle" dominant-baseline="middle" font-family="Inter, Helvetica, Arial, sans-serif">51.9 L</text></g><g data-component="CL_1"><polygon points="-52.00,-20.00 -44.00,-20.00 -38.00,-14.00 -38.00,-8.80 -40.00,-8.80 -55.60,-8.80 -58.00,-8.80 -58.00,-14.00 -58.00,-14.00 -52.00,-20.00" fill="rgb(255,255,255)" stroke="rgb(0,0,0)" stroke-width="0.25"/><text x="-48.40" y="-16.30" font-size="3.57" fill="rgb(0,0,0)" text-anchor="middle" dominant-baseline="middle" font-family="Inter, Helvetica, Arial, sans-serif">CL_1</text><rect x="-58.00" y="-22.10" width="20.00" height="20.00" rx="0.00" fill="rgb(193,193,255)" stroke="rgb(193,193,255)" stroke-width="0.25"/><rect x="-58.00" y="-19.70" width="20.00" height="20.00" rx="0.00" fill="rgb(51,209,122)" stroke="rgb(46,194,126)" stroke-width="2.00"/><polyline points="-51.89,-10.33 -51.89,-7.13" fill="none" stroke="rgb(153,193,241)" stroke-width="4.00"/><ellipse cx="-51.90" cy="-10.70" rx="0.70" ry="0.50" fill="rgb(170,170,255)" stroke="rgb(170,170,255)" stroke-width="0.25"/><text x="-47.70" y="-5.00" font-size="3.06" fill="rgb(0,0,0)" text-anchor="middle" dominant-baseline="middle" font-family="Inter, Helvetica, Arial, sans-serif">370 L/h</text></g><g data-component="CL_m1"><polygon points="16.00,2.00 24.00,2.00 30.00,8.00 30.00,13.20 28.00,13.20 12.40,13.20 10.00,13.20 10.00,8.00 10.00,8.00 16.00,2.00" fill="rgb(255,255,255)" stroke="rgb(0,0,0)" stroke-width="0.25"/><text x="19.60" y="5.70" font-size="3.57" fill="rgb(0,0,0)" text-anchor="middle" dominant-baseline="middle" font-family="Inter, Helvetica, Arial, sans-serif">CL_m1</text><rect x="10.00" y="-0.10" width="20.00" height="20.00" rx="0.00" fill="rgb(193,193,255)" stroke="rgb(193,193,255)" stroke-width="0.25"/><rect x="10.00" y="2.30" width="20.00" height="20.00" rx="0.00" fill="rgb(51,209,122)" stroke="rgb(46,194,126)" stroke-width="2.00"/><polyline points="16.11,11.67 16.11,14.87" fill="none" stroke="rgb(153,193,241)" stroke-width="4.00"/><ellipse cx="16.10" cy="11.30" rx="0.70" ry="0.50" fill="rgb(170,170,255)" stroke="rgb(170,170,255)" stroke-width="0.25"/><text x="20.30" y="17.00" font-size="3.06" fill="rgb(0,0,0)" text-anchor="middle" dominant-baseline="middle" font-family="Inter, Helvetica, Arial, sans-serif">74.2 L/h</text></g><g data-component="CL_m2"><polygon points="24.00,-98.00 32.00,-98.00 38.00,-92.00 38.00,-86.80 36.00,-86.80 20.40,-86.80 18.00,-86.80 18.00,-92.00 18.00,-92.00 24.00,-98.00" fill="rgb(255,255,255)" stroke="rgb(0,0,0)" stroke-width="0.25"/><text x="27.60" y="-94.30" font-size="3.57" fill="rgb(0,0,0)" text-anchor="middle" dominant-baseline="middle" font-family="Inter, Helvetica, Arial, sans-serif">CL_m2</text><rect x="18.00" y="-100.10" width="20.00" height="20.00" rx="0.00" fill="rgb(193,193,255)" stroke="rgb(193,193,255)" stroke-width="0.25"/><rect x="18.00" y="-97.70" width="20.00" height="20.00" rx="0.00" fill="rgb(51,209,122)" stroke="rgb(46,194,126)" stroke-width="2.00"/><polyline points="24.11,-88.33 24.11,-85.13" fill="none" stroke="rgb(153,193,241)" stroke-width="4.00"/><ellipse cx="24.10" cy="-88.70" rx="0.70" ry="0.50" fill="rgb(170,170,255)" stroke="rgb(170,170,255)" stroke-width="0.25"/><text x="28.30" y="-83.00" font-size="3.06" fill="rgb(0,0,0)" text-anchor="middle" dominant-baseline="middle" font-family="Inter, Helvetica, Arial, sans-serif">7.25 L/h</text></g><g data-component="Qc"><rect x="-6.00" y="-29.80" width="20.00" height="20.00" rx="0.00" fill="rgb(152,112,187)" stroke="rgb(152,112,187)" stroke-width="0.25"/><rect x="-6.00" y="-30.00" width="20.00" height="20.00" rx="0.00" fill="rgb(51,209,122)" stroke="rgb(46,194,126)" stroke-width="2.00"/><text x="3.40" y="-29.10" font-size="3.23" fill="rgb(0,0,0)" text-anchor="middle" dominant-baseline="middle" font-family="Inter, Helvetica, Arial, sans-serif">Qc</text><rect x="-6.00" y="-26.70" width="20.00" height="20.00" rx="0.00" fill="rgb(51,209,122)" stroke="rgb(46,194,126)" stroke-width="2.00"/><rect x="-6.00" y="-33.20" width="20.00" height="20.00" rx="0.00" fill="rgb(51,209,122)" stroke="rgb(46,194,126)" stroke-width="2.00"/><text x="4.20" y="-19.90" font-size="3.23" fill="rgb(0,0,0)" text-anchor="middle" dominant-baseline="middle" font-family="Inter, Helvetica, Arial, sans-serif">1</text><text x="3.90" y="-14.90" font-size="3.00" fill="rgb(0,0,0)" text-anchor="middle" dominant-baseline="middle" font-family="Inter, Helvetica, Arial, sans-serif">846 L/h</text><text x="3.90" y="-25.10" font-size="3.00" fill="rgb(0,0,0)" text-anchor="middle" dominant-baseline="middle" font-family="Inter, Helvetica, Arial, sans-serif">846 L/h</text><polyline points="4.60,-24.37 4.60,-18.57" fill="none" stroke="rgb(0,0,0)" stroke-width="6.00"/><polyline points="3.20,-19.97 3.20,-14.17" fill="none" stroke="rgb(0,0,0)" stroke-width="6.00"/></g><g data-component="Qp"><rect x="46.00" y="-29.80" width="20.00" height="20.00" rx="0.00" fill="rgb(152,112,187)" stroke="rgb(152,112,187)" stroke-width="0.25"/><rect x="46.00" y="-30.00" width="20.00" height="20.00" rx="0.00" fill="rgb(51,209,122)" stroke="rgb(46,194,126)" stroke-width="2.00"/><text x="55.40" y="-29.10" font-size="3.23" fill="rgb(0,0,0)" text-anchor="middle" dominant-baseline="middle" font-family="Inter, Helvetica, Arial, sans-serif">Qp</text><rect x="46.00" y="-26.70" width="20.00" height="20.00" rx="0.00" fill="rgb(51,209,122)" stroke="rgb(46,194,126)" stroke-width="2.00"/><rect x="46.00" y="-33.20" width="20.00" height="20.00" rx="0.00" fill="rgb(51,209,122)" stroke="rgb(46,194,126)" stroke-width="2.00"/><text x="56.20" y="-19.90" font-size="3.23" fill="rgb(0,0,0)" text-anchor="middle" dominant-baseline="middle" font-family="Inter, Helvetica, Arial, sans-serif">1</text><text x="55.90" y="-14.90" font-size="3.00" fill="rgb(0,0,0)" text-anchor="middle" dominant-baseline="middle" font-family="Inter, Helvetica, Arial, sans-serif">588 L/h</text><text x="55.90" y="-25.10" font-size="3.00" fill="rgb(0,0,0)" text-anchor="middle" dominant-baseline="middle" font-family="Inter, Helvetica, Arial, sans-serif">588 L/h</text><polyline points="56.60,-24.37 56.60,-18.57" fill="none" stroke="rgb(0,0,0)" stroke-width="6.00"/><polyline points="55.20,-19.97 55.20,-14.17" fill="none" stroke="rgb(0,0,0)" stroke-width="6.00"/></g><g data-component="Qhm1"><rect x="-6.00" y="16.20" width="20.00" height="20.00" rx="0.00" fill="rgb(152,112,187)" stroke="rgb(152,112,187)" stroke-width="0.25"/><rect x="-6.00" y="16.00" width="20.00" height="20.00" rx="0.00" fill="rgb(51,209,122)" stroke="rgb(46,194,126)" stroke-width="2.00"/><text x="3.40" y="16.90" font-size="3.23" fill="rgb(0,0,0)" text-anchor="middle" dominant-baseline="middle" font-family="Inter, Helvetica, Arial, sans-serif">Qhm1</text><rect x="-6.00" y="19.30" width="20.00" height="20.00" rx="0.00" fill="rgb(51,209,122)" stroke="rgb(46,194,126)" stroke-width="2.00"/><rect x="-6.00" y="12.80" width="20.00" height="20.00" rx="0.00" fill="rgb(51,209,122)" stroke="rgb(46,194,126)" stroke-width="2.00"/><text x="4.20" y="26.10" font-size="3.23" fill="rgb(0,0,0)" text-anchor="middle" dominant-baseline="middle" font-family="Inter, Helvetica, Arial, sans-serif">1</text><text x="3.90" y="31.10" font-size="3.00" fill="rgb(0,0,0)" text-anchor="middle" dominant-baseline="middle" font-family="Inter, Helvetica, Arial, sans-serif"></text><text x="3.90" y="20.90" font-size="3.00" fill="rgb(0,0,0)" text-anchor="middle" dominant-baseline="middle" font-family="Inter, Helvetica, Arial, sans-serif">1.11e+03 L/h</text><polyline points="4.60,21.63 4.60,27.43" fill="none" stroke="rgb(0,0,0)" stroke-width="6.00"/><polyline points="3.20,26.03 3.20,31.83" fill="none" stroke="rgb(0,0,0)" stroke-width="6.00"/></g><g data-component="Qm1"><rect x="44.00" y="18.20" width="20.00" height="20.00" rx="0.00" fill="rgb(152,112,187)" stroke="rgb(152,112,187)" stroke-width="0.25"/><rect x="44.00" y="18.00" width="20.00" height="20.00" rx="0.00" fill="rgb(51,209,122)" stroke="rgb(46,194,126)" stroke-width="2.00"/><text x="53.40" y="18.90" font-size="3.23" fill="rgb(0,0,0)" text-anchor="middle" dominant-baseline="middle" font-family="Inter, Helvetica, Arial, sans-serif">Qm1</text><rect x="44.00" y="21.30" width="20.00" height="20.00" rx="0.00" fill="rgb(51,209,122)" stroke="rgb(46,194,126)" stroke-width="2.00"/><rect x="44.00" y="14.80" width="20.00" height="20.00" rx="0.00" fill="rgb(51,209,122)" stroke="rgb(46,194,126)" stroke-width="2.00"/><text x="54.20" y="28.10" font-size="3.23" fill="rgb(0,0,0)" text-anchor="middle" dominant-baseline="middle" font-family="Inter, Helvetica, Arial, sans-serif">1</text><text x="53.90" y="33.10" font-size="3.00" fill="rgb(0,0,0)" text-anchor="middle" dominant-baseline="middle" font-family="Inter, Helvetica, Arial, sans-serif"></text><text x="53.90" y="22.90" font-size="3.00" fill="rgb(0,0,0)" text-anchor="middle" dominant-baseline="middle" font-family="Inter, Helvetica, Arial, sans-serif"></text><polyline points="54.60,23.63 54.60,29.43" fill="none" stroke="rgb(0,0,0)" stroke-width="6.00"/><polyline points="53.20,28.03 53.20,33.83" fill="none" stroke="rgb(0,0,0)" stroke-width="6.00"/></g><g data-component="Qhm2"><rect x="-4.00" y="-83.80" width="20.00" height="20.00" rx="0.00" fill="rgb(152,112,187)" stroke="rgb(152,112,187)" stroke-width="0.25"/><rect x="-4.00" y="-84.00" width="20.00" height="20.00" rx="0.00" fill="rgb(51,209,122)" stroke="rgb(46,194,126)" stroke-width="2.00"/><text x="5.40" y="-83.10" font-size="3.23" fill="rgb(0,0,0)" text-anchor="middle" dominant-baseline="middle" font-family="Inter, Helvetica, Arial, sans-serif">Qhm2</text><rect x="-4.00" y="-80.70" width="20.00" height="20.00" rx="0.00" fill="rgb(51,209,122)" stroke="rgb(46,194,126)" stroke-width="2.00"/><rect x="-4.00" y="-87.20" width="20.00" height="20.00" rx="0.00" fill="rgb(51,209,122)" stroke="rgb(46,194,126)" stroke-width="2.00"/><text x="6.20" y="-73.90" font-size="3.23" fill="rgb(0,0,0)" text-anchor="middle" dominant-baseline="middle" font-family="Inter, Helvetica, Arial, sans-serif">1</text><text x="5.90" y="-68.90" font-size="3.00" fill="rgb(0,0,0)" text-anchor="middle" dominant-baseline="middle" font-family="Inter, Helvetica, Arial, sans-serif"></text><text x="5.90" y="-79.10" font-size="3.00" fill="rgb(0,0,0)" text-anchor="middle" dominant-baseline="middle" font-family="Inter, Helvetica, Arial, sans-serif">7.78e+03 L/h</text><polyline points="6.60,-78.37 6.60,-72.57" fill="none" stroke="rgb(0,0,0)" stroke-width="6.00"/><polyline points="5.20,-73.97 5.20,-68.17" fill="none" stroke="rgb(0,0,0)" stroke-width="6.00"/></g><g data-component="Qm2"><rect x="52.00" y="-83.80" width="20.00" height="20.00" rx="0.00" fill="rgb(152,112,187)" stroke="rgb(152,112,187)" stroke-width="0.25"/><rect x="52.00" y="-84.00" width="20.00" height="20.00" rx="0.00" fill="rgb(51,209,122)" stroke="rgb(46,194,126)" stroke-width="2.00"/><text x="61.40" y="-83.10" font-size="3.23" fill="rgb(0,0,0)" text-anchor="middle" dominant-baseline="middle" font-family="Inter, Helvetica, Arial, sans-serif">Qm2</text><rect x="52.00" y="-80.70" width="20.00" height="20.00" rx="0.00" fill="rgb(51,209,122)" stroke="rgb(46,194,126)" stroke-width="2.00"/><rect x="52.00" y="-87.20" width="20.00" height="20.00" rx="0.00" fill="rgb(51,209,122)" stroke="rgb(46,194,126)" stroke-width="2.00"/><text x="62.20" y="-73.90" font-size="3.23" fill="rgb(0,0,0)" text-anchor="middle" dominant-baseline="middle" font-family="Inter, Helvetica, Arial, sans-serif">1</text><text x="61.90" y="-68.90" font-size="3.00" fill="rgb(0,0,0)" text-anchor="middle" dominant-baseline="middle" font-family="Inter, Helvetica, Arial, sans-serif">4.48 L/h</text><text x="61.90" y="-79.10" font-size="3.00" fill="rgb(0,0,0)" text-anchor="middle" dominant-baseline="middle" font-family="Inter, Helvetica, Arial, sans-serif">4.48 L/h</text><polyline points="62.60,-78.37 62.60,-72.57" fill="none" stroke="rgb(0,0,0)" stroke-width="6.00"/><polyline points="61.20,-73.97 61.20,-68.17" fill="none" stroke="rgb(0,0,0)" stroke-width="6.00"/></g><g data-component="centralM1CPort"><polygon points="-110.00,-0.00 -100.00,-10.00 -90.00,-0.00 -100.00,10.00 -110.00,-0.00" fill="rgb(152,112,187)" stroke="rgb(152,112,187)" stroke-width="8.00"/></g><g data-component="C_central"><polygon points="90.00,-20.00 110.00,-10.00 90.00,-0.00 90.00,-20.00" fill="rgb(255,255,255)" stroke="rgb(28,113,216)" stroke-width="1.00"/></g><g data-component="C_M1"><polygon points="90.00,28.00 110.00,38.00 90.00,48.00 90.00,28.00" fill="rgb(255,255,255)" stroke="rgb(28,113,216)" stroke-width="1.00"/></g><g data-component="C_M2"><polygon points="90.00,-74.00 110.00,-64.00 90.00,-54.00 90.00,-74.00" fill="rgb(255,255,255)" stroke="rgb(28,113,216)" stroke-width="1.00"/></g></svg>
